<svg
  xmlns="http://www.w3.org/2000/svg"
  version="1.0"
  width="1024"
  height="1024"
  viewBox="0 0 300.000000 300.000000"
  preserveAspectRatio="xMidYMid meet"
>
  <rect width="300" height="300" fill="#1e293b"/>
  <g transform="translate(0.000000,300.000000) scale(0.100000,-0.100000)" fill="#ffffff" stroke="none">
    <path d="M1550 2900 c-8 -5 -42 -6 -76 -3 -57 5 -63 4 -74 -17 -15 -27 2 -52 22 -32 9 9 8 12 -6 12 -9 0 -14 5 -11 10 7 11 95 9 95 -1 0 -4 -7 -12 -15 -19 -8 -7 -15 -19 -15 -26 0 -8 -11 -14 -27 -15 -26 0 -26 -1 -7 -9 35 -14 38 -30 7 -31 l-28 -1 28 -10 c27 -10 45 -47 32 -68 -4 -6 -19 -9 -34 -5 -18 4 -32 1 -39 -8 -10 -11 -4 -14 34 -15 38 -2 50 2 75 27 26 27 29 36 29 98 0 47 5 76 16 91 18 26 16 35 -6 22z m-27 -50 c-10 -22 -13 -45 -8 -78 5 -41 3 -52 -15 -73 -15 -17 -19 -19 -12 -4 6 10 8 42 5 70 -5 51 15 115 36 115 5 0 3 -14 -6 -30z" />
    <path d="M1635 2870 c-3 -5 -1 -10 4 -10 6 0 11 5 11 10 0 6 -2 10 -4 10 -3 0 -8 -4 -11 -10z" />
    <path d="M1250 2854 c0 -8 5 -12 10 -9 6 3 10 10 10 16 0 5 -4 9 -10 9 -5 0 -10 -7 -10 -16z" />
    <path d="M1170 2845 c-7 -8 -16 -13 -20 -10 -4 2 1 -21 11 -52 11 -31 20 -69 21 -84 1 -18 9 -31 20 -35 26 -8 43 5 25 19 -18 15 -49 140 -41 161 8 20 0 20 -16 1z" />
    <path d="M1070 2825 c-7 -8 -29 -15 -49 -15 -76 0 -109 -88 -51 -132 24 -17 28 -18 73 -2 52 17 68 13 51 -14 -8 -12 -25 -17 -55 -17 -38 0 -45 -3 -51 -25 -5 -14 -3 -29 4 -35 8 -7 9 -5 5 8 -7 18 -1 20 44 17 18 -1 31 7 43 25 14 22 20 24 32 14 12 -10 18 -9 32 4 14 15 14 17 1 17 -19 0 -75 131 -66 154 8 20 3 20 -13 1z m-40 -43 c0 -4 -10 -12 -22 -17 -12 -6 -24 -17 -26 -25 -5 -13 -3 -13 12 -1 15 13 19 13 27 0 7 -11 9 -10 9 6 0 11 4 26 9 34 7 11 13 7 25 -17 9 -17 16 -35 16 -40 0 -4 -21 -18 -46 -29 -45 -21 -46 -21 -65 -2 -26 26 -24 54 7 78 27 21 54 28 54 13z" />
    <path d="M1608 2823 c-1 -4 -3 -35 -3 -68 0 -44 4 -60 14 -60 9 0 14 15 15 50 1 28 4 56 6 64 5 15 -25 28 -32 14z" />
    <path d="M1245 2810 c-6 -10 19 -127 29 -137 15 -15 28 15 16 36 -6 12 -12 39 -13 61 -1 37 -20 60 -32 40z" />
    <path d="M1692 2774 c-1 -26 -7 -53 -13 -61 -8 -9 -9 -17 -2 -24 18 -18 38 1 41 39 2 20 4 48 5 62 1 15 -4 26 -13 27 -12 3 -16 -7 -18 -43z" />
    <path d="M1745 2800 c-3 -5 -1 -10 5 -10 8 0 9 -19 4 -61 -6 -56 -5 -61 12 -57 15 3 18 10 16 36 -2 17 3 45 11 61 14 28 13 30 -7 35 -29 8 -34 7 -41 -4z" />
    <path d="M1842 2738 c-19 -73 -19 -83 -3 -83 8 0 16 11 18 24 2 14 9 36 16 50 7 14 11 34 9 44 -7 34 -27 16 -40 -35z" />
    <path d="M1904 2738 c-1 -18 -5 -50 -9 -72 -7 -34 -6 -38 11 -34 11 2 18 11 16 19 -1 9 4 34 11 55 16 45 12 64 -11 64 -12 0 -17 -9 -18 -32z" />
    <path d="M2018 2718 c26 -13 28 -32 7 -72 -16 -30 -20 -66 -7 -66 12 0 27 14 27 25 1 23 27 85 37 85 6 0 -1 9 -15 20 -14 11 -36 20 -49 19 l-23 0 23 -11z" />
    <path d="M2150 2718 c0 -5 -18 -40 -40 -78 -42 -73 -48 -90 -27 -90 6 0 30 34 52 75 22 41 43 75 47 75 17 0 7 18 -12 23 -11 3 -20 1 -20 -5z" />
    <path d="M1976 2675 c-32 -30 -35 -65 -5 -65 15 0 19 4 15 16 -9 24 3 56 19 50 9 -3 12 0 8 10 -7 18 -5 18 -37 -11z" />
    <path d="M723 2635 c2 -5 14 -11 26 -13 14 -2 21 -10 19 -20 -1 -9 9 -36 22 -59 21 -36 29 -41 50 -36 14 3 32 15 41 26 16 19 15 23 -12 65 -28 44 -28 44 -88 46 -37 0 -60 -3 -58 -9z m126 -59 c26 -41 26 -46 2 -46 -11 0 -28 14 -40 34 -26 41 -26 46 -2 46 11 0 28 -14 40 -34z" />
    <path d="M2175 2640 c3 -5 -6 -33 -22 -60 -20 -36 -37 -53 -58 -59 l-30 -9 28 -1 c43 -1 65 15 92 70 26 51 26 69 -1 69 -8 0 -12 -4 -9 -10z" />
    <path d="M1390 2600 c-154 -15 -330 -72 -453 -147 -646 -388 -749 -1259 -209 -1775 139 -132 300 -224 487 -275 93 -26 114 -28 285 -28 171 0 192 2 284 28 521 145 862 615 833 1147 -29 513 -410 945 -911 1034 -109 20 -225 26 -316 16z m286 -35 c466 -80 820 -433 903 -899 15 -85 14 -291 -3 -378 -83 -431 -400 -763 -833 -870 -126 -31 -360 -31 -486 0 -406 101 -711 398 -818 798 -27 101 -37 344 -19 448 31 179 115 366 227 505 246 307 646 462 1029 396z" />
    <path d="M1480 2134 c0 -304 -3 -385 -12 -382 -10 4 -14 73 -16 291 -2 243 -5 287 -17 287 -12 0 -15 -44 -17 -292 l-3 -291 32 -26 33 -26 0 -95 0 -94 -45 44 -45 44 0 328 c0 287 -5 359 -22 320 -1 -4 -20 -21 -41 -38 l-39 -32 2 -183 c1 -147 4 -187 15 -199 13 -12 15 9 15 177 0 160 2 192 15 197 13 5 15 -31 15 -288 l0 -293 69 -67 c52 -50 71 -75 74 -99 4 -31 4 -31 5 6 1 22 7 37 15 37 7 0 41 28 75 63 l62 63 0 293 c0 230 3 292 13 289 6 -3 13 -24 15 -47 3 -33 7 -42 20 -39 12 2 18 15 20 44 3 37 -1 43 -47 82 -27 23 -52 42 -55 42 -3 0 -6 -148 -6 -328 l0 -329 -40 -36 c-21 -21 -42 -37 -45 -37 -3 0 -5 39 -5 88 0 85 1 88 30 112 l31 25 2 293 c2 271 1 292 -15 292 -16 0 -18 -22 -20 -287 -2 -218 -6 -287 -15 -291 -10 -3 -13 78 -13 382 0 379 0 386 -20 386 -20 0 -20 -7 -20 -386z" />
    <path d="M1680 1908 c0 -130 0 -131 20 -113 18 16 20 31 20 132 0 106 -1 113 -20 113 -19 0 -20 -7 -20 -132z" />
    <path d="M1235 1760 c-11 -12 -16 -29 -13 -45 5 -25 -5 -34 -17 -14 -13 20 -45 -22 -45 -59 0 -30 -2 -33 -15 -22 -13 11 -20 11 -40 0 -20 -11 -25 -21 -25 -53 0 -34 -2 -38 -15 -27 -12 10 -20 9 -40 -4 l-25 -16 0 -248 0 -247 216 -103 c210 -99 219 -102 286 -102 66 0 74 3 283 104 l215 104 0 245 0 245 -26 17 c-20 13 -28 14 -40 4 -12 -10 -14 -6 -14 25 0 27 -6 39 -26 52 -19 13 -28 14 -37 5 -18 -18 -23 -13 -19 23 3 26 -1 37 -19 50 -14 9 -25 12 -27 6 -8 -23 -22 -8 -22 24 0 18 -7 39 -15 46 -13 11 -21 8 -45 -15 -30 -29 -30 -29 -30 -144 l-1 -116 -83 -57 c-47 -32 -90 -58 -97 -58 -8 0 -51 26 -96 57 l-83 57 0 116 c0 114 0 117 -28 143 -34 32 -34 32 -57 7z m45 -149 l0 -138 105 -69 c98 -65 105 -71 106 -104 l2 -35 6 33 c5 28 21 43 106 101 l100 68 5 138 c4 100 9 140 18 143 10 3 12 -34 10 -174 l-3 -178 -110 -68 c-60 -37 -116 -68 -125 -68 -8 0 -65 30 -127 68 l-113 67 0 178 c0 111 4 177 10 177 6 0 10 -53 10 -139z m-60 -89 l0 -147 135 -80 135 -80 0 -43 0 -43 -142 75 -143 75 -3 196 c-1 128 1 195 8 195 6 0 10 -54 10 -148z m578 -48 l-3 -195 -145 -75 c-80 -41 -146 -74 -147 -74 -2 0 -3 18 -3 40 l0 39 133 79 132 79 3 139 c2 146 5 164 22 164 7 0 10 -64 8 -196z m-640 -50 l2 -169 165 -83 165 -83 0 -38 0 -39 -180 82 -180 81 0 213 c0 167 3 213 13 210 9 -4 13 -49 15 -174z m710 -36 l-3 -212 -180 -83 -180 -82 -3 31 c-2 17 1 35 7 41 5 5 81 47 168 92 l158 83 3 158 c2 166 5 184 22 184 7 0 10 -69 8 -212z m-788 -59 l0 -179 83 -38 c45 -21 137 -63 205 -92 l122 -54 0 -53 c0 -51 -1 -52 -22 -43 -13 6 -111 50 -218 98 l-195 89 -3 219 c-2 221 0 250 18 239 6 -4 10 -76 10 -186z m860 -41 l0 -233 -211 -95 c-115 -52 -214 -97 -220 -99 -6 -2 -9 17 -7 49 l3 53 146 66 c80 36 173 78 207 93 l62 27 0 179 c0 157 3 192 17 192 2 0 3 -105 3 -232z" />
    <path d="M910 830 l0 -130 79 0 c78 0 80 -1 228 -75 l150 -75 132 0 131 0 150 75 c149 75 150 75 230 75 l80 0 0 130 0 130 -65 0 c-61 0 -76 -5 -241 -85 l-177 -85 -107 0 -107 0 -177 85 c-166 80 -181 85 -242 85 l-64 0 0 -130z m190 -2 c0 -65 -17 -98 -50 -98 -21 0 -40 20 -40 42 0 22 9 23 25 1 21 -28 35 -5 35 58 0 46 3 59 15 59 12 0 15 -14 15 -62z m800 22 c0 -28 3 -30 35 -30 32 0 35 2 35 30 0 20 5 30 15 30 12 0 15 -16 15 -80 0 -64 -3 -80 -15 -80 -10 0 -15 11 -15 35 0 33 -2 35 -35 35 -33 0 -35 -2 -35 -36 0 -24 -4 -34 -12 -32 -9 3 -14 31 -16 81 -2 64 0 77 13 77 10 0 15 -10 15 -30z m-650 -111 c0 -60 -3 -80 -12 -77 -9 3 -14 31 -16 81 -2 64 0 77 13 77 12 0 15 -15 15 -81z m553 13 c15 -38 27 -74 27 -80 0 -21 -20 -13 -32 13 -8 18 -19 25 -39 25 -22 0 -30 -6 -35 -25 -3 -14 -12 -25 -20 -25 -19 0 -18 2 13 87 18 47 33 73 43 73 9 0 26 -26 43 -68z m-413 -61 l35 -53 3 57 c2 38 7 55 15 52 8 -2 12 -29 12 -78 0 -91 -16 -101 -58 -34 -16 25 -32 47 -35 49 -4 2 -5 -18 -4 -45 3 -40 1 -49 -12 -49 -13 0 -16 13 -16 81 0 95 8 98 60 20z m210 6 l35 -52 3 53 c5 84 26 61 30 -31 3 -69 1 -77 -15 -77 -11 0 -31 22 -50 53 l-33 52 0 -53 c0 -40 -4 -52 -15 -52 -12 0 -15 16 -15 80 0 97 10 101 60 27z" />
    <path d="M1747 750 c-4 -15 0 -20 14 -20 21 0 22 1 13 24 -8 22 -21 20 -27 -4z" />
    <path d="M2331 2596 c-9 -11 -7 -12 12 -9 14 3 29 -2 36 -11 12 -14 10 -16 -9 -16 -57 0 -110 -48 -110 -101 0 -29 53 -79 84 -79 21 0 26 -5 26 -25 0 -18 5 -25 20 -25 12 0 17 5 14 13 -3 8 21 40 53 74 53 55 57 61 42 76 -9 10 -24 17 -35 16 -10 0 -13 -3 -6 -6 17 -7 15 -28 -4 -43 -12 -11 -18 -10 -31 3 -16 16 -15 19 5 46 l21 29 -34 36 c-35 38 -65 45 -84 22z m32 -91 c-62 -58 -92 -59 -62 -4 11 22 62 48 92 49 14 0 5 -13 -30 -45z m25 -27 c-57 -64 -80 -77 -86 -45 -3 12 3 17 22 17 17 0 36 13 62 45 20 25 41 45 46 45 6 0 -14 -28 -44 -62z m28 -22 c18 -19 18 -21 -7 -50 -13 -15 -28 -22 -38 -19 -9 3 -22 7 -30 9 -10 3 -5 14 19 39 39 40 37 39 56 21z" />
    <path d="M2380 2446 c0 -2 7 -7 16 -10 8 -3 12 -2 9 4 -6 10 -25 14 -25 6z" />
    <path d="M695 2558 c-32 -19 -46 -42 -30 -51 7 -4 16 -20 20 -36 8 -35 29 -55 50 -47 22 8 18 24 -7 28 -13 2 -24 11 -27 23 -2 11 -10 24 -17 28 -8 5 -12 12 -9 18 12 18 33 9 56 -25 28 -41 55 -52 62 -25 3 11 1 17 -3 14 -5 -3 -23 15 -41 40 -18 25 -33 45 -33 45 -1 0 -10 -6 -21 -12z" />
    <path d="M587 2472 c-19 -4 -24 -32 -6 -32 6 0 29 -16 50 -35 45 -40 55 -43 62 -16 3 13 0 18 -8 15 -6 -3 -27 12 -46 33 -20 22 -42 37 -52 35z" />
    <path d="M530 2405 c0 -8 6 -15 14 -15 8 0 28 -16 45 -35 32 -36 47 -43 53 -23 5 15 -74 88 -96 88 -9 0 -16 -7 -16 -15z" />
    <path d="M487 2373 c-12 -12 -7 -32 6 -27 8 3 30 -13 51 -36 35 -39 56 -45 56 -14 0 8 -3 14 -7 14 -5 0 -26 16 -47 35 -41 36 -48 40 -59 28z" />
    <path d="M2504 2372 c3 -5 -15 -24 -40 -42 -41 -31 -53 -55 -27 -55 6 0 32 19 58 42 44 41 51 63 19 63 -8 0 -13 -4 -10 -8z" />
    <path d="M2543 2321 c1 -4 -18 -26 -43 -48 -43 -39 -44 -40 -22 -52 18 -10 22 -9 22 3 0 8 17 27 38 43 38 28 47 63 16 63 -8 0 -13 -4 -11 -9z" />
    <path d="M428 2290 c-19 -17 -15 -30 9 -30 7 0 31 -12 53 -26 39 -26 60 -25 60 2 0 8 -5 12 -10 9 -10 -6 -65 26 -85 50 -8 9 -14 8 -27 -5z" />
    <path d="M2655 2260 c-3 -5 1 -10 9 -10 9 0 16 5 16 10 0 6 -4 10 -9 10 -6 0 -13 -4 -16 -10z" />
    <path d="M2560 2223 c-44 -35 -62 -63 -40 -63 6 0 20 9 32 20 12 11 35 26 50 32 27 12 35 38 13 44 -5 1 -30 -14 -55 -33z" />
    <path d="M380 2220 c0 -12 5 -17 13 -14 7 2 32 -9 55 -26 24 -17 47 -28 52 -25 18 11 10 33 -13 39 -12 3 -32 14 -44 26 -29 26 -63 27 -63 0z" />
    <path d="M2640 2185 c-13 -14 -37 -30 -55 -36 -27 -10 -30 -15 -27 -44 6 -52 40 -61 97 -27 49 29 56 46 25 62 -17 9 -19 14 -9 33 7 12 17 25 23 29 6 5 2 8 -10 8 -11 0 -31 -11 -44 -25z m28 -53 c2 -6 -11 -21 -30 -32 -40 -24 -44 -24 -52 -5 -4 10 5 22 27 35 34 21 48 21 55 2z" />
    <path d="M350 2169 c0 -11 3 -18 8 -15 4 2 26 -9 50 -25 46 -32 62 -36 62 -16 -1 10 -98 77 -114 77 -3 0 -6 -9 -6 -21z" />
    <path d="M307 2091 c-8 -9 -17 -27 -20 -40 l-6 -23 25 23 c17 15 28 19 35 12 7 -7 5 -14 -5 -22 -14 -11 -14 -15 0 -36 18 -27 38 -37 59 -29 26 10 18 35 -8 29 -29 -8 -57 19 -39 37 9 9 18 8 36 -2 29 -15 58 -7 50 15 -3 8 -10 12 -15 9 -5 -3 -29 6 -54 19 -40 23 -45 24 -58 8z" />
    <path d="M2658 2038 c-57 -24 -65 -55 -20 -83 15 -10 21 -12 15 -4 -15 15 -17 45 -4 54 5 3 25 -4 45 -16 l36 -21 11 26 c10 22 9 29 -6 46 -21 24 -18 24 -77 -2z m63 -27 c-7 -12 -17 -18 -26 -15 -21 9 -19 19 8 31 28 13 31 10 18 -16z" />
    <path d="M257 1983 c-4 -3 -7 -15 -7 -26 0 -14 3 -17 13 -9 21 18 116 -27 132 -63 18 -40 19 -13 1 29 -11 28 -25 38 -70 55 -65 24 -61 23 -69 14z" />
    <path d="M183 1947 c3 -9 1 -19 -5 -23 -6 -4 13 -13 43 -21 30 -7 71 -22 91 -32 21 -10 40 -16 43 -13 9 9 5 32 -5 32 -6 0 -27 7 -48 16 -20 10 -46 19 -57 21 -10 2 -30 11 -44 20 -22 14 -24 14 -18 0z" />
    <path d="M2760 1952 c0 -12 -86 -43 -94 -34 -3 3 -6 0 -6 -6 0 -5 -2 -16 -5 -24 -3 -7 3 -18 14 -25 16 -10 18 -9 14 6 -4 14 5 21 41 31 55 15 73 32 51 50 -9 7 -15 8 -15 2z" />
    <path d="M2770 1884 c0 -9 5 -14 12 -12 18 6 21 28 4 28 -9 0 -16 -7 -16 -16z" />
    <path d="M208 1827 c-24 -36 -7 -63 49 -79 46 -13 49 -13 66 9 29 36 14 69 -38 82 -59 15 -60 14 -77 -12z m104 -24 c4 -2 4 -11 1 -19 -4 -12 -14 -14 -42 -9 -41 8 -56 19 -46 34 6 10 66 6 87 -6z" />
    <path d="M2758 1833 c-10 -2 -18 -11 -18 -19 0 -8 -6 -14 -12 -14 -7 0 -4 -6 6 -12 15 -8 21 -7 28 6 14 25 38 20 38 -9 0 -14 8 -29 19 -35 24 -12 41 -13 41 -1 0 5 -8 8 -17 7 -13 -1 -18 6 -18 25 0 28 -21 60 -39 58 -6 -1 -19 -3 -28 -6z" />
    <path d="M2678 1808 c7 -7 12 -21 12 -32 1 -35 26 -59 54 -52 30 7 52 41 35 52 -7 4 -17 0 -24 -9 -20 -28 -45 -21 -45 12 0 17 -6 31 -16 35 -24 9 -29 7 -16 -6z" />
    <path d="M113 1683 c-9 -18 -9 -31 -2 -44 13 -25 18 -24 12 1 -6 23 -8 23 105 20 75 -2 83 0 80 16 -3 15 -13 17 -75 15 -40 -1 -80 2 -90 7 -15 8 -21 5 -30 -15z" />
    <path d="M2785 1698 c-75 -18 -89 -27 -74 -44 8 -9 15 -11 19 -5 3 6 30 14 60 18 37 6 55 13 55 22 0 19 -12 20 -60 9z" />
    <path d="M2870 1686 c0 -2 7 -6 15 -10 8 -3 15 -1 15 4 0 6 -7 10 -15 10 -8 0 -15 -2 -15 -4z" />
    <path d="M170 1629 c-24 -7 -24 -7 -2 -8 12 -1 22 -6 22 -12 0 -8 -12 -10 -34 -6 -20 3 -41 0 -51 -7 -16 -12 -16 -14 0 -47 24 -47 45 -69 66 -69 10 0 21 -9 24 -20 3 -11 10 -20 15 -20 5 0 7 6 4 14 -3 8 3 19 15 26 27 14 58 -2 63 -32 5 -36 23 -31 22 7 -2 40 -19 66 -43 64 -13 -1 -13 -2 2 -6 9 -2 17 -8 17 -12 0 -4 -32 -4 -72 1 -58 6 -76 12 -89 30 -22 29 -16 38 27 38 30 0 34 -3 34 -25 0 -14 5 -25 10 -25 6 0 10 11 10 25 0 20 5 25 24 25 14 0 28 -5 31 -11 5 -7 13 -5 26 7 17 15 17 18 1 40 -9 13 -21 24 -26 24 -5 0 -3 -6 3 -14 16 -19 -2 -30 -35 -22 -30 8 -31 23 -1 28 18 3 17 5 -8 9 -17 3 -41 2 -55 -2z" />
    <path d="M2835 1630 c-3 -6 -28 -10 -55 -10 -38 0 -52 -4 -59 -19 -8 -14 -7 -22 4 -31 12 -10 15 -9 15 4 0 12 9 16 34 16 19 0 41 3 50 6 11 4 16 1 16 -10 0 -9 5 -16 10 -16 6 0 10 6 10 14 0 8 8 16 17 18 14 2 12 6 -9 20 -17 11 -29 14 -33 8z" />
    <path d="M2721 1518 c16 -18 38 -43 49 -56 24 -27 85 -28 85 -2 0 8 -7 13 -15 11 -34 -7 -63 -3 -78 14 -16 16 -14 17 29 13 51 -3 75 12 64 40 -5 12 -9 13 -12 5 -6 -16 -109 -18 -118 -3 -3 6 -12 10 -20 10 -8 0 -2 -13 16 -32z" />
    <path d="M158 1523 c7 -3 16 -2 19 1 4 3 -2 6 -13 5 -11 0 -14 -3 -6 -6z" />
    <path d="M351 1093 c8 -10 19 -27 25 -39 11 -19 10 -20 -20 -16 -17 3 -37 12 -44 21 -11 14 -12 13 -7 -6 7 -26 -14 -42 -27 -19 -12 21 -26 21 -24 -1 1 -19 -13 -21 -54 -8 -24 7 -24 7 -8 -11 9 -11 23 -37 30 -58 7 -22 18 -41 24 -43 16 -5 5 60 -13 74 -11 9 -6 10 25 6 25 -3 50 0 70 11 17 9 42 16 55 16 24 0 24 1 12 36 -12 34 -29 54 -49 54 -5 0 -3 -8 5 -17z" />
    <path d="M2626 1078 c-21 -29 -20 -40 5 -72 29 -37 54 -33 84 14 14 22 32 40 39 40 23 0 29 -38 12 -65 -18 -28 -35 -31 -55 -12 -11 10 -13 9 -9 -2 2 -8 13 -21 25 -28 18 -12 24 -11 49 10 27 24 27 25 13 62 -18 48 -42 64 -69 48 -16 -11 -21 -10 -30 7 -14 26 -45 25 -64 -2z m60 -13 c7 -17 -21 -65 -37 -65 -18 0 -21 30 -5 55 19 28 34 32 42 10z" />
    <path d="M350 993 c-8 -2 -24 -8 -35 -13 -11 -5 -29 -11 -40 -13 -18 -4 -18 -5 3 -6 29 -1 28 -18 -3 -63 -24 -36 -25 -37 -6 -48 22 -11 42 -14 24 -2 -8 5 -4 19 14 49 24 42 25 42 52 29 25 -13 28 -13 40 6 10 17 10 22 -6 34 -10 7 -22 14 -28 14 -5 0 -3 5 5 10 16 10 6 12 -20 3z m18 -21 c7 -5 10 -16 7 -24 -6 -15 -9 -15 -35 0 -16 9 -26 20 -24 24 7 10 35 10 52 0z" />
    <path d="M2568 929 c-27 -15 -23 -65 7 -95 15 -15 32 -23 41 -20 9 3 20 6 25 6 5 0 9 11 9 25 0 25 -1 25 -24 10 -19 -13 -29 -14 -45 -5 -46 24 -5 67 52 56 34 -7 67 -32 67 -51 0 -7 -10 -19 -22 -28 -19 -12 -21 -18 -10 -28 10 -11 16 -9 33 8 19 19 20 25 9 57 -20 63 -91 95 -142 65z" />
    <path d="M411 826 c-7 -8 -27 -17 -46 -20 -44 -9 -64 -40 -36 -56 17 -8 20 -6 23 12 2 13 11 24 23 27 11 2 24 9 28 17 11 20 27 17 27 -5 0 -10 -18 -30 -40 -46 -22 -15 -40 -34 -40 -41 0 -20 17 -17 42 6 12 11 34 26 50 32 31 14 30 39 -2 70 -15 14 -20 15 -29 4z" />
    <path d="M2478 789 c-35 -20 -13 -105 28 -115 28 -7 40 0 47 27 6 21 6 21 -39 2 -14 -5 -46 26 -41 41 2 6 15 15 30 20 33 12 70 -4 93 -40 15 -22 16 -27 3 -35 -41 -25 -44 -28 -33 -39 9 -9 17 -8 34 2 18 11 21 19 16 53 -9 70 -84 116 -138 84z" />
    <path d="M493 714 c7 -7 -56 -64 -70 -64 -6 0 -8 -11 -5 -25 4 -26 32 -36 32 -12 0 8 18 30 41 50 39 36 44 57 12 57 -9 0 -14 -3 -10 -6z" />
    <path d="M527 666 c-3 -8 0 -17 8 -20 14 -5 28 17 18 28 -10 10 -21 7 -26 -8z" />
    <path d="M2357 653 c-4 -3 -7 -14 -7 -24 0 -12 6 -16 18 -12 12 3 33 -11 63 -44 46 -49 73 -57 82 -23 3 13 1 17 -9 13 -9 -3 -37 16 -69 46 -53 50 -65 57 -78 44z" />
    <path d="M593 602 c23 -25 22 -29 -18 -73 -40 -45 -44 -59 -14 -59 11 0 18 4 15 9 -3 5 12 25 35 46 43 38 42 47 -1 82 -23 19 -35 15 -17 -5z" />
    <path d="M540 572 c-42 -20 -55 -62 -20 -62 12 0 18 4 15 10 -9 14 13 50 30 50 8 0 15 5 15 10 0 13 1 13 -40 -8z" />
    <path d="M651 470 c-26 -33 -30 -43 -21 -60 6 -11 18 -20 27 -20 12 0 13 3 3 15 -17 21 36 91 57 74 17 -14 28 -6 20 16 -12 29 -52 17 -86 -25z" />
    <path d="M800 495 c0 -7 -20 -44 -45 -80 -41 -61 -48 -85 -26 -85 5 0 25 28 46 62 21 33 46 69 55 78 15 15 15 17 -7 27 -18 9 -23 8 -23 -2z" />
    <path d="M2227 473 c-11 -10 -8 -23 6 -23 6 -1 24 -19 39 -40 28 -40 58 -53 58 -25 0 8 -4 15 -9 15 -4 0 -21 18 -36 40 -26 38 -44 48 -58 33z" />
    <path d="M2175 440 c-3 -6 0 -16 7 -23 7 -8 24 -30 38 -50 24 -35 50 -49 50 -27 0 14 -58 93 -75 103 -8 4 -17 3 -20 -3z" />
    <path d="M829 428 c0 -2 -2 -11 -4 -20 -7 -37 -65 -107 -93 -111 -22 -3 -20 -4 10 -6 22 0 43 5 52 15 27 27 68 103 61 114 -5 9 -24 14 -26 8z" />
    <path d="M945 410 c-3 -5 -2 -10 4 -10 5 0 13 5 16 10 3 6 2 10 -4 10 -5 0 -13 -4 -16 -10z" />
    <path d="M2100 393 c-29 -11 -61 -41 -50 -48 5 -3 10 -1 10 4 0 6 10 11 23 11 16 0 27 -11 41 -41 23 -47 33 -56 49 -40 9 9 9 14 1 19 -16 10 -54 88 -47 96 8 7 -6 7 -27 -1z" />
    <path d="M893 374 c3 -4 -5 -29 -19 -56 -25 -50 -25 -68 2 -68 8 0 12 5 9 10 -4 6 5 31 19 56 32 57 32 64 4 64 -12 0 -19 -3 -15 -6z" />
    <path d="M1953 343 c-7 -18 -8 -33 -3 -33 5 0 17 -22 27 -49 10 -29 25 -52 35 -54 22 -6 36 12 18 23 -7 4 -20 26 -30 49 -18 38 -18 41 -2 51 15 8 14 9 -5 10 -12 0 -23 7 -25 18 -3 12 -7 7 -15 -15z" />
    <path d="M1175 330 c-3 -5 3 -10 15 -10 28 0 38 -29 16 -45 -11 -9 -13 -14 -5 -17 7 -2 10 -10 8 -17 -4 -11 -9 -10 -22 3 -9 10 -21 15 -26 11 -5 -3 1 -16 15 -30 13 -13 24 -29 24 -34 0 -6 -19 -19 -42 -30 l-43 -20 34 2 c32 2 35 0 35 -28 1 -24 6 -31 26 -33 18 -2 21 0 12 6 -12 8 -10 27 7 112 25 122 24 105 5 124 -17 18 -50 21 -59 6z" />
    <path d="M1894 313 c1 -12 -7 -19 -24 -21 -54 -8 -69 -57 -26 -85 22 -15 25 -15 30 -1 8 22 8 24 -8 24 -12 0 -26 20 -26 36 0 2 13 4 29 4 28 0 41 14 41 46 0 8 -4 14 -9 14 -5 0 -8 -8 -7 -17z" />
    <path d="M2070 301 c0 -44 41 -79 53 -47 4 9 -2 17 -14 21 -17 6 -24 23 -20 48 0 4 -3 7 -9 7 -5 0 -10 -13 -10 -29z" />
    <path d="M1302 313 c-9 -3 -5 -14 13 -35 14 -16 23 -34 19 -39 -7 -12 -51 -12 -59 1 -11 18 -25 11 -25 -12 0 -14 3 -18 8 -12 9 15 72 5 72 -11 0 -9 -11 -12 -39 -8 -21 3 -41 1 -44 -4 -3 -5 10 -7 29 -5 36 4 52 -13 40 -43 -5 -14 -9 -14 -37 1 -35 18 -50 8 -48 -31 1 -18 2 -18 6 -2 3 13 10 16 21 12 35 -15 47 -15 65 -1 19 15 36 70 37 118 0 31 -39 79 -58 71z" />
    <path d="M1740 305 c0 -8 2 -15 4 -15 2 0 6 7 10 15 3 8 1 15 -4 15 -6 0 -10 -7 -10 -15z" />
    <path d="M1267 303 c-4 -3 -7 -16 -6 -27 0 -19 1 -19 10 3 10 24 8 36 -4 24z" />
    <path d="M1578 293 c-13 -3 -15 -10 -7 -35 4 -17 9 -57 10 -89 2 -46 5 -58 20 -62 10 -3 24 2 30 10 10 11 10 14 -2 11 -20 -5 -24 81 -3 89 24 9 29 -5 9 -27 -11 -12 -13 -20 -6 -20 7 0 17 -13 22 -30 11 -29 23 -38 32 -22 3 4 -3 24 -13 44 -12 25 -14 40 -7 47 7 7 6 15 -3 26 -12 14 -15 14 -30 0 -26 -24 -32 -18 -28 25 2 22 1 39 -2 39 -3 -1 -12 -3 -22 -6z" />
    <path d="M1732 258 c-7 -7 -8 -17 -3 -27 5 -9 12 -35 16 -58 4 -24 11 -46 17 -49 14 -9 29 17 18 31 -4 5 -11 31 -15 58 -8 51 -16 62 -33 45z" />
    <path d="M1880 244 c0 -8 7 -17 15 -20 26 -10 18 -44 -10 -44 -14 0 -29 -8 -35 -20 -12 -22 -8 -24 18 -11 9 5 29 14 45 22 29 13 35 36 15 61 -19 23 -48 30 -48 12z" />
    <path d="M943 226 c3 -7 0 -19 -6 -25 -16 -16 4 -13 27 4 20 15 14 35 -11 35 -9 0 -13 -6 -10 -14z" />
    <path d="M1431 231 c-11 -7 -7 -10 15 -13 28 -3 29 -5 29 -55 1 -58 6 -69 31 -59 11 4 14 10 8 16 -6 6 -7 33 -4 63 l5 52 -35 2 c-19 2 -41 -1 -49 -6z" />
    <path d="M1426 178 c-27 -39 -14 -89 18 -71 16 9 16 11 2 22 -21 17 -20 38 0 49 11 6 13 12 6 16 -6 3 -18 -4 -26 -16z" />
  </g>
</svg>
